<mxfile host="Electron" agent="Mozilla/5.0 (Macintosh; Intel Mac OS X 10_15_7) AppleWebKit/537.36 (KHTML, like Gecko) draw.io/27.0.5 Chrome/134.0.6998.205 Electron/35.3.0 Safari/537.36" version="27.0.5">
  <diagram name="Data Architecture" id="rnh_sUmBPOXDmJEHn09k">
    <mxGraphModel dx="1454" dy="976" grid="1" gridSize="10" guides="1" tooltips="1" connect="1" arrows="1" fold="1" page="0" pageScale="1" pageWidth="850" pageHeight="1100" math="0" shadow="0">
      <root>
        <mxCell id="0" />
        <mxCell id="1" parent="0" />
        <mxCell id="TNscLNkaRWgxwCWvulyc-1" value="" style="rounded=0;whiteSpace=wrap;html=1;fillColor=none;dashed=1;strokeColor=light-dark(#545454, #ededed);" vertex="1" parent="1">
          <mxGeometry x="60" y="130" width="140" height="470" as="geometry" />
        </mxCell>
        <mxCell id="TNscLNkaRWgxwCWvulyc-2" value="Sources" style="rounded=0;whiteSpace=wrap;html=1;fontSize=24;strokeColor=none;" vertex="1" parent="1">
          <mxGeometry x="85" y="110" width="90" height="30" as="geometry" />
        </mxCell>
        <mxCell id="TNscLNkaRWgxwCWvulyc-3" value="" style="rounded=0;whiteSpace=wrap;html=1;fillColor=none;dashed=1;strokeColor=light-dark(#545454, #ededed);" vertex="1" parent="1">
          <mxGeometry x="280" y="130" width="780" height="470" as="geometry" />
        </mxCell>
        <mxCell id="TNscLNkaRWgxwCWvulyc-4" value="Data Warehouse" style="rounded=0;whiteSpace=wrap;html=1;fontSize=24;strokeColor=none;" vertex="1" parent="1">
          <mxGeometry x="555" y="110" width="230" height="30" as="geometry" />
        </mxCell>
        <mxCell id="TNscLNkaRWgxwCWvulyc-5" value="" style="rounded=0;whiteSpace=wrap;html=1;fillColor=none;dashed=1;strokeColor=light-dark(#545454, #ededed);" vertex="1" parent="1">
          <mxGeometry x="1160" y="130" width="120" height="470" as="geometry" />
        </mxCell>
        <mxCell id="TNscLNkaRWgxwCWvulyc-6" value="Consume" style="rounded=0;whiteSpace=wrap;html=1;fontSize=24;strokeColor=none;" vertex="1" parent="1">
          <mxGeometry x="1175" y="110" width="90" height="30" as="geometry" />
        </mxCell>
        <mxCell id="TNscLNkaRWgxwCWvulyc-7" value="Bronze Layer" style="rounded=0;whiteSpace=wrap;html=1;fillColor=#ffe6cc;strokeColor=#d79b00;fontSize=20;fontStyle=1" vertex="1" parent="1">
          <mxGeometry x="320" y="150" width="160" height="30" as="geometry" />
        </mxCell>
        <mxCell id="TNscLNkaRWgxwCWvulyc-8" value="" style="rounded=0;whiteSpace=wrap;html=1;fillColor=none;strokeColor=#d79b00;fontSize=20;" vertex="1" parent="1">
          <mxGeometry x="320" y="200" width="160" height="370" as="geometry" />
        </mxCell>
        <mxCell id="TNscLNkaRWgxwCWvulyc-9" value="Silver Layer" style="rounded=0;whiteSpace=wrap;html=1;fillColor=#f5f5f5;strokeColor=#666666;fontSize=20;fontColor=#333333;fontStyle=1" vertex="1" parent="1">
          <mxGeometry x="590" y="150" width="160" height="30" as="geometry" />
        </mxCell>
        <mxCell id="TNscLNkaRWgxwCWvulyc-10" value="" style="rounded=0;whiteSpace=wrap;html=1;fillColor=none;strokeColor=#666666;fontSize=20;fontColor=#333333;" vertex="1" parent="1">
          <mxGeometry x="590" y="200" width="160" height="370" as="geometry" />
        </mxCell>
        <mxCell id="TNscLNkaRWgxwCWvulyc-11" value="Gold Layer" style="rounded=0;whiteSpace=wrap;html=1;fillColor=#fff2cc;strokeColor=#d6b656;fontSize=20;fontStyle=1" vertex="1" parent="1">
          <mxGeometry x="860" y="150" width="160" height="30" as="geometry" />
        </mxCell>
        <mxCell id="TNscLNkaRWgxwCWvulyc-12" value="" style="rounded=0;whiteSpace=wrap;html=1;fillColor=none;strokeColor=#d6b656;fontSize=20;" vertex="1" parent="1">
          <mxGeometry x="860" y="200" width="160" height="370" as="geometry" />
        </mxCell>
        <mxCell id="TNscLNkaRWgxwCWvulyc-13" value="CRM" style="image;aspect=fixed;html=1;points=[];align=center;fontSize=12;image=img/lib/azure2/general/Folder_Blank.svg;" vertex="1" parent="1">
          <mxGeometry x="96" y="210" width="69" height="56.00000000000001" as="geometry" />
        </mxCell>
        <mxCell id="TNscLNkaRWgxwCWvulyc-14" value="" style="image;aspect=fixed;html=1;points=[];align=center;fontSize=12;image=img/lib/azure2/general/File.svg;" vertex="1" parent="1">
          <mxGeometry x="142.54" y="230" width="32.46" height="40" as="geometry" />
        </mxCell>
        <mxCell id="TNscLNkaRWgxwCWvulyc-15" value="ERP" style="image;aspect=fixed;html=1;points=[];align=center;fontSize=12;image=img/lib/azure2/general/Folder_Blank.svg;" vertex="1" parent="1">
          <mxGeometry x="96" y="310" width="69" height="56.00000000000001" as="geometry" />
        </mxCell>
        <mxCell id="TNscLNkaRWgxwCWvulyc-16" value="" style="image;aspect=fixed;html=1;points=[];align=center;fontSize=12;image=img/lib/azure2/general/File.svg;" vertex="1" parent="1">
          <mxGeometry x="142.54" y="330" width="32.46" height="40" as="geometry" />
        </mxCell>
        <mxCell id="TNscLNkaRWgxwCWvulyc-17" value="" style="endArrow=none;html=1;rounded=0;" edge="1" parent="1">
          <mxGeometry width="50" height="50" relative="1" as="geometry">
            <mxPoint x="65.5" y="400" as="sourcePoint" />
            <mxPoint x="195.5" y="400" as="targetPoint" />
          </mxGeometry>
        </mxCell>
        <mxCell id="TNscLNkaRWgxwCWvulyc-18" value="&lt;font style=&quot;font-size: 10px;&quot;&gt;&lt;strong style=&quot;&quot; data-end=&quot;116&quot; data-start=&quot;101&quot;&gt;Object Type&lt;/strong&gt;: CSV Files&lt;br&gt;&lt;strong style=&quot;&quot; data-end=&quot;143&quot; data-start=&quot;130&quot;&gt;Interface&lt;/strong&gt;: Files in Folders&lt;/font&gt;" style="text;html=1;align=center;verticalAlign=middle;whiteSpace=wrap;rounded=0;" vertex="1" parent="1">
          <mxGeometry x="70" y="420" width="120" height="30" as="geometry" />
        </mxCell>
        <mxCell id="TNscLNkaRWgxwCWvulyc-19" value="&lt;strong data-end=&quot;314&quot; data-start=&quot;298&quot;&gt;Object Type:&lt;/strong&gt; Tables&lt;br data-end=&quot;324&quot; data-start=&quot;321&quot;&gt;&lt;br&gt;&lt;strong data-end=&quot;333&quot; data-start=&quot;324&quot;&gt;Load:&lt;/strong&gt;&lt;ul&gt;&lt;li&gt;Batch Processing&lt;/li&gt;&lt;li&gt;Full Load&lt;/li&gt;&lt;li&gt;Truncate &amp;amp; Insert&lt;/li&gt;&lt;/ul&gt;&lt;br&gt;&lt;strong data-end=&quot;409&quot; data-start=&quot;387&quot;&gt;No Transformations&lt;/strong&gt;&lt;br data-end=&quot;412&quot; data-start=&quot;409&quot;&gt;&lt;br&gt;&lt;strong data-end=&quot;427&quot; data-start=&quot;412&quot;&gt;Data Model:&lt;/strong&gt; None (as-is)" style="text;html=1;align=left;verticalAlign=middle;rounded=0;" vertex="1" parent="1">
          <mxGeometry x="325" y="320" width="150" height="240" as="geometry" />
        </mxCell>
        <mxCell id="TNscLNkaRWgxwCWvulyc-20" value="" style="html=1;verticalLabelPosition=bottom;align=center;labelBackgroundColor=#ffffff;verticalAlign=top;strokeWidth=2;strokeColor=#d79b00;shadow=0;dashed=0;shape=mxgraph.ios7.icons.data;fillColor=#ffe6cc;" vertex="1" parent="1">
          <mxGeometry x="376.08" y="210" width="47.84" height="58" as="geometry" />
        </mxCell>
        <mxCell id="TNscLNkaRWgxwCWvulyc-21" value="" style="html=1;verticalLabelPosition=bottom;align=center;labelBackgroundColor=#ffffff;verticalAlign=top;strokeWidth=2;strokeColor=#666666;shadow=0;dashed=0;shape=mxgraph.ios7.icons.data;fillColor=#f5f5f5;fontColor=#333333;" vertex="1" parent="1">
          <mxGeometry x="646.0799999999999" y="220" width="47.84" height="58" as="geometry" />
        </mxCell>
        <mxCell id="TNscLNkaRWgxwCWvulyc-22" value="" style="html=1;verticalLabelPosition=bottom;align=center;labelBackgroundColor=#ffffff;verticalAlign=top;strokeWidth=2;strokeColor=#d6b656;shadow=0;dashed=0;shape=mxgraph.ios7.icons.data;fillColor=#fff2cc;" vertex="1" parent="1">
          <mxGeometry x="916.0799999999999" y="220" width="47.84" height="58" as="geometry" />
        </mxCell>
        <mxCell id="TNscLNkaRWgxwCWvulyc-23" value="" style="shape=flexArrow;endArrow=classic;html=1;rounded=0;fillColor=#d5e8d4;strokeColor=#82b366;width=9.166666666666668;endSize=5.308333333333334;endWidth=13.194444444444445;" edge="1" parent="1">
          <mxGeometry width="50" height="50" relative="1" as="geometry">
            <mxPoint x="260" y="310" as="sourcePoint" />
            <mxPoint x="330" y="310" as="targetPoint" />
          </mxGeometry>
        </mxCell>
        <mxCell id="TNscLNkaRWgxwCWvulyc-25" value="" style="shape=flexArrow;endArrow=classic;html=1;rounded=0;fillColor=#d5e8d4;strokeColor=#82b366;width=9.166666666666668;endSize=5.308333333333334;endWidth=13.194444444444445;" edge="1" parent="1">
          <mxGeometry width="50" height="50" relative="1" as="geometry">
            <mxPoint x="530" y="310" as="sourcePoint" />
            <mxPoint x="600" y="310" as="targetPoint" />
          </mxGeometry>
        </mxCell>
        <mxCell id="TNscLNkaRWgxwCWvulyc-26" value="" style="shape=flexArrow;endArrow=classic;html=1;rounded=0;fillColor=#d5e8d4;strokeColor=#82b366;width=9.166666666666668;endSize=5.308333333333334;endWidth=13.194444444444445;" edge="1" parent="1">
          <mxGeometry width="50" height="50" relative="1" as="geometry">
            <mxPoint x="800" y="310" as="sourcePoint" />
            <mxPoint x="870" y="310" as="targetPoint" />
          </mxGeometry>
        </mxCell>
        <mxCell id="TNscLNkaRWgxwCWvulyc-27" value="" style="shape=flexArrow;endArrow=classic;html=1;rounded=0;fillColor=#d5e8d4;strokeColor=#82b366;width=9.166666666666668;endSize=5.308333333333334;endWidth=13.194444444444445;" edge="1" parent="1">
          <mxGeometry width="50" height="50" relative="1" as="geometry">
            <mxPoint x="1100" y="310" as="sourcePoint" />
            <mxPoint x="1170" y="310" as="targetPoint" />
          </mxGeometry>
        </mxCell>
        <mxCell id="TNscLNkaRWgxwCWvulyc-28" value="&lt;p class=&quot;&quot; data-end=&quot;223&quot; data-start=&quot;211&quot;&gt;&lt;strong data-end=&quot;223&quot; data-start=&quot;211&quot;&gt;Raw Data&lt;/strong&gt;&lt;/p&gt;" style="text;html=1;align=center;verticalAlign=middle;whiteSpace=wrap;rounded=0;" vertex="1" parent="1">
          <mxGeometry x="340" y="280" width="120" height="30" as="geometry" />
        </mxCell>
        <mxCell id="TNscLNkaRWgxwCWvulyc-29" value="&lt;p class=&quot;&quot; data-end=&quot;444&quot; data-start=&quot;414&quot;&gt;&lt;strong data-end=&quot;444&quot; data-start=&quot;414&quot;&gt;Cleaned, Standardized Data&lt;/strong&gt;&lt;/p&gt;" style="text;html=1;align=center;verticalAlign=middle;whiteSpace=wrap;rounded=0;" vertex="1" parent="1">
          <mxGeometry x="610" y="280" width="120" height="30" as="geometry" />
        </mxCell>
        <mxCell id="TNscLNkaRWgxwCWvulyc-30" value="&lt;p class=&quot;&quot; data-end=&quot;769&quot; data-start=&quot;746&quot;&gt;&lt;strong data-end=&quot;769&quot; data-start=&quot;746&quot;&gt;Business-Ready Data&lt;/strong&gt;&lt;/p&gt;" style="text;html=1;align=center;verticalAlign=middle;whiteSpace=wrap;rounded=0;" vertex="1" parent="1">
          <mxGeometry x="880" y="280" width="120" height="30" as="geometry" />
        </mxCell>
        <mxCell id="TNscLNkaRWgxwCWvulyc-31" value="&lt;strong data-end=&quot;517&quot; data-start=&quot;501&quot;&gt;Object Type:&lt;/strong&gt; Tables&lt;br data-end=&quot;527&quot; data-start=&quot;524&quot;&gt;&lt;strong data-end=&quot;536&quot; data-start=&quot;527&quot;&gt;Load:&lt;/strong&gt;&lt;br&gt;&lt;ul&gt;&lt;li&gt;Batch Processing&lt;/li&gt;&lt;li&gt;Full Load&lt;/li&gt;&lt;li&gt;Truncate &amp;amp; Insert&lt;/li&gt;&lt;/ul&gt;&lt;strong data-end=&quot;610&quot; data-start=&quot;590&quot;&gt;Transformations:&lt;/strong&gt;&lt;br&gt;&lt;ul&gt;&lt;li&gt;Data Cleansing&lt;/li&gt;&lt;li&gt;Data Standardization&lt;/li&gt;&lt;li&gt;Data Normalization&lt;/li&gt;&lt;li&gt;Derived Columns&lt;/li&gt;&lt;li&gt;Data Enrichment&lt;/li&gt;&lt;/ul&gt;&lt;strong data-end=&quot;725&quot; data-start=&quot;710&quot;&gt;Data Model:&lt;/strong&gt; None (as-is)" style="text;html=1;align=left;verticalAlign=middle;rounded=0;" vertex="1" parent="1">
          <mxGeometry x="595" y="320" width="150" height="250" as="geometry" />
        </mxCell>
        <mxCell id="TNscLNkaRWgxwCWvulyc-32" value="&lt;strong data-end=&quot;806&quot; data-start=&quot;790&quot;&gt;Object Type:&lt;/strong&gt; Views&lt;br&gt;&lt;strong data-end=&quot;826&quot; data-start=&quot;815&quot;&gt;No Load&lt;/strong&gt;&lt;br&gt;&lt;strong data-end=&quot;849&quot; data-start=&quot;829&quot;&gt;Transformations:&lt;/strong&gt;&lt;ul&gt;&lt;li&gt;Data Integrations&lt;/li&gt;&lt;li&gt;Aggregations&lt;/li&gt;&lt;li&gt;Business Logics&lt;/li&gt;&lt;/ul&gt;&lt;strong data-end=&quot;920&quot; data-start=&quot;905&quot;&gt;Data Model:&lt;/strong&gt;&lt;ul&gt;&lt;li&gt;Star Schema&lt;/li&gt;&lt;li&gt;Flat Table&lt;/li&gt;&lt;li&gt;Aggregated Table&lt;/li&gt;&lt;/ul&gt;" style="text;html=1;align=left;verticalAlign=middle;rounded=0;" vertex="1" parent="1">
          <mxGeometry x="865" y="320" width="150" height="250" as="geometry" />
        </mxCell>
        <mxCell id="TNscLNkaRWgxwCWvulyc-33" value="BI Reporting" style="image;aspect=fixed;html=1;points=[];align=center;fontSize=12;image=img/lib/azure2/analytics/Power_BI_Embedded.svg;" vertex="1" parent="1">
          <mxGeometry x="1195" y="203" width="51" height="68" as="geometry" />
        </mxCell>
        <mxCell id="TNscLNkaRWgxwCWvulyc-34" value="" style="shape=image;verticalLabelPosition=bottom;labelBackgroundColor=default;verticalAlign=top;aspect=fixed;imageAspect=0;image=data:image/png,iVBORw0KGgoAAAANSUhEUgAAAFwAAABZCAYAAACzIkPrAAABdWlDQ1BrQ0dDb2xvclNwYWNlRGlzcGxheVAzAAAokXWQvUvDUBTFT6tS0DqIDh0cMolD1NIKdnFoKxRFMFQFq1OafgltfCQpUnETVyn4H1jBWXCwiFRwcXAQRAcR3Zw6KbhoeN6XVNoi3sfl/Ticc7lcwBtQGSv2AijplpFMxKS11Lrke4OHnlOqZrKooiwK/v276/PR9d5PiFlNu3YQ2U9cl84ul3aeAlN//V3Vn8maGv3f1EGNGRbgkYmVbYsJ3iUeMWgp4qrgvMvHgtMunzuelWSc+JZY0gpqhrhJLKc79HwHl4plrbWD2N6f1VeXxRzqUcxhEyYYilBRgQQF4X/8044/ji1yV2BQLo8CLMpESRETssTz0KFhEjJxCEHqkLhz634PrfvJbW3vFZhtcM4v2tpCAzidoZPV29p4BBgaAG7qTDVUR+qh9uZywPsJMJgChu8os2HmwiF3e38M6Hvh/GMM8B0CdpXzryPO7RqFn4Er/QcXKWq8UwZBywAAAARjSUNQDA0AAW4D4+8AAABWZVhJZk1NACoAAAAIAAGHaQAEAAAAAQAAABoAAAAAAAOShgAHAAAAEgAAAESgAgAEAAAAAQAAAFygAwAEAAAAAQAAAFkAAAAAQVNDSUkAAABTY3JlZW5zaG90D04F6QAAAdRpVFh0WE1MOmNvbS5hZG9iZS54bXAAAAAAADx4OnhtcG1ldGEgeG1sbnM6eD0iYWRvYmU6bnM6bWV0YS8iIHg6eG1wdGs9IlhNUCBDb3JlIDYuMC4wIj4KICAgPHJkZjpSREYgeG1sbnM6cmRmPSJodHRwOi8vd3d3LnczLm9yZy8xOTk5LzAyLzIyLXJkZi1zeW50YXgtbnMjIj4KICAgICAgPHJkZjpEZXNjcmlwdGlvbiByZGY6YWJvdXQ9IiIKICAgICAgICAgICAgeG1sbnM6ZXhpZj0iaHR0cDovL25zLmFkb2JlLmNvbS9leGlmLzEuMC8iPgogICAgICAgICA8ZXhpZjpQaXhlbFlEaW1lbnNpb24+ODk8L2V4aWY6UGl4ZWxZRGltZW5zaW9uPgogICAgICAgICA8ZXhpZjpQaXhlbFhEaW1lbnNpb24+OTI8L2V4aWY6UGl4ZWxYRGltZW5zaW9uPgogICAgICAgICA8ZXhpZjpVc2VyQ29tbWVudD5TY3JlZW5zaG90PC9leGlmOlVzZXJDb21tZW50PgogICAgICA8L3JkZjpEZXNjcmlwdGlvbj4KICAgPC9yZGY6UkRGPgo8L3g6eG1wbWV0YT4KJg44WwAAMRtJREFUeAHNnQec3Vd1588r02c0Go1Go94tS3LHvdvYxhSvccAh7AKmbLKNYgMhnyQbsgnFkBiSTwwmsKwhlJgabDB2wN2ybNmSXJBtWZJVLVl1NF2a+t7s73vvO2/uPI8EJHz2s1f6v1tOueeee//nnlvem0yxWBwzhbGxMRsdHbVcLmfZbNYymUwoc1ihUAjlwCYLIyMjVlVVVaZzeuK+vj5TPdbc3FzmmbGiUTF8geWrqwJb1SycTJnPsPhmxSOfz5erRVZCoFU6H2Qug5WI8vf39xtyTZ06dbxe8SJQJw/tJSCnx/CHDhiP1+dw9ETdNTU1E2CBgT56enqCLhoaGl4Dn1x7TvkbxqlAvyFJUHbEjcoz9XuGJMocK5CQ6ovhkXpKaSlGEB46IYSMYEpnpOT/14F2+0PdaacdS5bxYVMicKJjEQB3BXt8LNxjl2t0l/Q1ZhpBQhzL5Mc7QTDAhUzORjPZgFEsKTSSxYZGRZfkCR2A0osTqq18WycAfwcZ15fHx2LpugoKd+TQgNLIcQSPHcfzvI5uXkgDB+Z4VJymXZCIJ5hwiyhZOkJFo9Ik47og7Y+MjIWYt70gYG1VNnQQLz8qzeofYpIe06udy5fMAnl1D53icroMlXElXCQheHnaUZXtAhG44zpvykm7XpzOY+B57BxIbku9IoAEZ+rplJmnoQXP7WFKg+0dHBwM/MEHJhVJ2VkrZnM2OGrWfWTMevvHbO/BTjtydNiODAzYiHhCW1WVt8a6vC2e125TG7I2tTFjtdJ0pjBixdGjEpB5ZzDwpR1p46mX+tIy2kEeO+w23OlSuWkT8vKA53TgenuBTcb7yJEjoRw8hzvvvCcCx9KHKyYtQ0AXoJIGpl5G2itxemCUOd/RbL0NCbh1T9Ge3rTP9h3qt76jBRvRcB9RB4ShG4hHNLJHrFoKfmJjn02pL9rC2c121okzbfbUKqvK1VmuGBtXpc4Z0zxAXZgrl8Pl8thlSmOXDxrH87cWPJfbY6f1vLfX+TiNw8k7b73ZklCB3uCpnJldAPdggKc9Di15HmBlxoni+/qOhIbUT2kM5mO/RvND6w/aC1sPWPegrJoUXSgy+jWSsNlYiKIMjN6AQrA5QUTLZzVibMTa6kftzBVz7dxTp9vU2oxVC78aO1IRGGnIPcE7klwElxmlILMrDRht9vYCJ4CfpsGhvcRpm8n39vYGGF6KwwITfZRHeFopRB5SQSjzChzusdM4fhFBBMSbKATPM2sDym96tWD3r9ltm3YPqAHVEiwrIY5aU9WoLZjVatNbGqy2VqZE/TA0XLT+o6MyOSO251Cf9R4ds+FMg+3tH7Z9T+2zHfu67apzF9uyuZpciyOaF8ZfcVeOy+exy4kCPe1xikOZP5TTLmg89g7w9oLjfCjjqaQHZ4KXQkGKTN6Dl3v+eLF3V6gQQXM18jjytmlnwe585GXr6NVIrWq0XKHPpjfk7JTF8+y0E1ts+tSMNdYgbORONKgJ9MiwWUffmD2/9ag9IxPUNyAbnJ1im/d02cDAS3btZSts5dwqPEt1XrS3x5MPmCuENHKSrwyuwMpy8in+8fAqacsKD8qp6NUU2eFpRV5xZVmgy8YG0PxR2dcN2wv24Lpttq9XtlfTZt1Yp51+QotdcuZ8m9OatTqZhZxIeIHDC6E0uquS39FQl7X2howtbm+0M5cvsYfW7rdnX+6VJWqwbR0F+/mjL1n91Stt/nSZJRktjfMgAh+/jTLKRKXEpO0qwf6tfKOBSmpyxSZFIUnlxxOgEp9Gs1whHJYpuO+pbXagW6tG2cTqzIC9/sx59rarFtiSGcpLw1VSbk4jNKN0TgufnGx1bmzY8sUhy40OWLU6Sebalkipv3flLLvszAWaNKXeXL3tPDhov1i92ToHGKkaQ/LfCcdTSgr7bdoVGFd8pLwqQK/J5pkcCG6fICbNUxnArRQOfK/QJ17omFCGNBHKMbO1L/bYgf6cJr3hMLJf/7q5dtU5rXLvpMERlKu3IChc/a+VY7EoV0/jlJEe7L/wRuW+5DRposxpmiWvOqdW/voMe3TDAc2YDbZh11Gb89xBe+O57YFfXp2GvMhE7DIS0waX28u9LG0ftOihEof2UQbcYV7GgHI9AfcAHrzLI5yMM59M2U6YxmllaXnkJaE02HbsK9oLLx+Qz10j+zpiZ8iMXHxGuzVKsdnRYU10dHhs2Kg8E+lfys/asFZCxTH89bzikoK0CsrSGVodTa3KyBw12/IF00Kjh7PNtv7FXfbK/qGwaErlIY2sLq83Hjn9cbjH0ADzkKZTWFqepr2ulB54ng0nAr1Bgbt2jugxvUbvAU8DneM9yUIFHj5pDiuxYdtR6+qXB5Er2qyWvF1x9kKbVq96BMuy+Cm9SVm5gLiEcckvRasSJGPlmM2OCXd8ZGLXpT2bNSVrl5zeagcPHrau4VrrlLu5cVuHzZs9R1S58mYaMlfK7aOQ9rtyiF1px2ovOMgMvFJXzgc9eJ3Oz3WWdSQHeN4RPE7LSfsDHc8EuIhQWLcU8PJu7RRqpOaLg3bKsjk2VxMkXSaS8gYUDchIoUWV4Y28sGvINrxSsOd3HbFuuYVSQ+jsICN+unAxL+pDTaRZO3FRe6i/mKmz3R2D1jfoXR5HqbeNtricaRnllcHb5/gpfLIy4JU8nUdKG7yUyQApUmU6ZQxtmkfV+AkYil37i3agF7NRsObaMVuxqEWTn4JoPOCnj6F9qRWaDTv77N5HNtgRa7HG4l57xxtOszNWzBCELtRSO7zl4cM08G2KVjwnLW22Z3cctYIc/VcPH7WO7jFrnykc2fsxmaxURpeVuLLdlHk5MW80MQHcNHY8yibDAR/68Tc4Wu+yDQ/cfoOPVEhPuzBRtKiaEfHatbfXhmWPsdHTG7M2Ux5G9F2i8lCgxBKcVaZst1LDY3VaIDXZYKZFi5wm+e/BgAhSEWiQbD4jZo48nfZpjaHhvQNF260FETWwEfbvCd6uyXiksDSd4no5sadfo3B6y3ssJU7LUgbgpDA0h3fBMzgi+y6jnM0UbF57k9VQW1i+y6gwEQb1Y6/Zoi1tzzKigpI1OrDxASe+N6xe9Z/hFkYvdRMaNSdMbQjvjjo4FzbAIppqAFU8I+24KYyU45+uEG9bZX4cM6YmtFlFKf6xcMEJS/u0kjTtTNMyT8PU0x7H10dulCZAJszu3iNy6zQzS78tU2qCHOhqtPTgNDEKs3SK4ugG4qXI3cLQq8xD5I0CNTGrEJuvT225MJnnbYp2FOmIguDD8jEZ4WwBp7L5GwhPLydO87S5sszzjudmwsuJUzrgmJMUHirRR949DIAgOrEjeAyMB8beEQ5zxnHmFx/5FwNahHA8Vp2vlyb16kuB7G3zHOgr2urn9usNGJHyiza/JStXcUHYG3elYGpCI0QQdKveiJ6UILwFCuwOatbXDq1GDhtbQXkZGx4aCXvqyDUq1xO5fG8nlTnCJ9r4wDfRxWQ68fYC8+BlyOy6ol4CyveQ90xKUKlQkL2M2NPOBFoq4WyRl5+II8oqJRiBDMmwgFGck8vUJ1OzfnOH9Q/Gfe+RJbV2yVkLwoQoKyL+JQHZKQwcS2VVOkMcl93k1ssYjWjfnLco7twF4yNZsppdMyrLaxcMFw0y78zAUzjIXOkuAqM9rhePKfcAnAdaYgI6IU0c6pOScQ+pAx6us7LCARAATlaJvwkwSQOVpLSBhz5q5T001ldL4Tp8UEs7eweChQjiiUVBm1cjI1pBogWZIB8EYTQnFaAofPNMrsoO66Bi1yEpSW9MlWzQnOnV1sRphMLRQfn6NFby1NVWhy3bgvI8tMcVE5BLH+B7Wyvh5FNdOBwa2suT0sOSMqfxGBweD2XtwdABxF6BI8JsstEA3GmjVSWv0a06GrTNyuHBmOzqgcMDmtBQXMmGKzE6VmWjMuTYbg/Qhn1xFTBlEgDzcm7a2Ws/enBj8OmrM6P27usutJUL6q1HezUHu+Kee03VmDU31cfRHBoaOwQ+aUBmf7zdKfxYaddNSku6MlCW4nodZWkcCGElAyd2GPn0SWnRKLt+rBKXLmy1Gk4GNDoP9hato6ekQFcqvZ/TayfVYttRPNYkrDpLysbvRkiaNFyslavYZiO5aTai7dnRTE3oiL0a9Qe6hiybrzLmzjkzp0SFI2egRvKJwUcgpd4+2uEP5ZOlvd3ACE5LmjLyHhyW4pYV7gQOdCIvT/O/Lo0oMJ7dlrXpTXHrgGX35u26J6JyZK3KaCdQ7mJc0auhKDq2YVxo7bd4oBlj6syiDi0yPLI9QAfk5mzZftTwv1mBtjbhIoqfYGp+UILzSONKxaUw14HHwFyRlFU+Ka2nU9q0LCztvXK3TceLIfbK03hCBTI/BA58l8zRgkQNHx6rsee37LaDUvz0admw6ZQfG9LmoBTF+OW/Hihx6rDbQckhF9gFLyRb1GnESI+dvLjNZs3K2k6tZl/asV/alR+u+WLZ/GYdZMRxNCbeRdl7xPE2Rk4x7+kJsqswbVclDrpxhQNzvh57mdNV5vMwSCsgz+vmZU5AOcFdHSp1HIcRUx5i9q+zVVJMk734clbHZVW293C3Pfn8ATv/vJl20dmt1nG407bt7tZEVxvWQ6kHEt8RNUiKR33hTdUpfXa0w2boAPm8MxeZnB177NkubY4NC2fYGqqLdtLi9rD65C4RcnCxjO1el5U2uIyUVbYVOOXeTtLeLmAE8ik/yjwPP3cwiL2cOglhhHuGgsp0SuBp8NK0C42QXBErqqKiZkPNa7ZkdtZWLpmhUV4Iy/ZVGw7Z+heGZWqy9ubLT7Dlc+W2FXrj0IavFDWmxRKuIfY3bnVJLg33XKHLlrQV7Zo3nG6tbRl78IkBe2FHT7Dd+WKXnb58ps1t05ygerXGlYySQSmXF5ljJ0SFkQ/yho6JnkeqTE+jE3CdnrgygON4Hqf0Dpf7Gk/aARJQHo8HT8dFR/QxHUYMI2h5qqvj8ppyGgubGjX53FOm2+ZXemRns9Y7XG0PPv6C1eZWaFOqzq574+nWf6hLHpDq1iDIYdcLR3TKo04Y7RcjuXviB6+li+fbohMXWG2D2ePPFOzZl3ZrEm22qkKPLZk3wy69aJYuDcWRhIeeERErg7RNrgyURpvKW8qTKNH96diecSW78ifz2uBPOY9v/bqy4aNFWxTQYwrTUFme5j1NnKahz2iCw+dkypzZnLGrzp5vrY0cJuStf6TO7n18l07vpVBVv3hJq7ZbUZFZe3PO5raM2cyGft09yVljbekmlWBTtSI9qknyX1cP2P3rdllfoVpeiurW0r5JF0V75Kd3ak+BOy9sG2TzdHc0kUJSCQMhmhHSLrOnydM53p50JHuZ0wDzMugJ5J0mhXl5oNEHoTxK09EQ2cRPt0uMCPB5YEQgjTlJb8+CnwvCj9khLeWPStHb5b7dveoV6+kflBry2sjptSWzmuzUZTM1iTZasyY7/O2jUlpB+uGck3NMbPvhLu2Tb+uxZ7fst0NdWrpr73tMcwRmB5+8JjdqLboBMFXbwG0yV6fp3sqimVWWHdIVjCbdDwlT8LiSkY+3snIhFxqkD0wNuphsFDtt2l5XKvTcFoauvr5+gp6AZUSs7ejYMwjgCkeJaUChLoDDUjqEqBTA6bu0iTUiu1w7td6e31Gwex7daHu7NZLkg7ObWK0x2Tqlyma1T7O21iYpqMpqdV1iUPsxvT0FHZt12v7DfboeoclPR3U5eSo5uZWtra3qoJwWPUe1iKoO+yp0WVWxP9xzueaipXbaokZr0dZwln1xGqw3D/l5aC+K8YHj8hK7wmmzw6EhjS5IQwu8MrjC0+vKrquw0kwFAIAglSHFSWFeThnpcky69Abo/pSAI7Ln9VIAZuIkW72hw17a2WG9g7repu3Yjv6sHezep5G4Rw+Goqhrb9hCjZJcdRjN8BvTZtSUuiFdl5hlJ5/eZvs7xuxHv9iu/XOdmcouFXkdsnXWOdJvv1iz2eprT7Qzlk1Rp7LLGBUdhEw+XO6kKCgWXfBUBldeWu56m6wDwPM68s7UC9IeTRn6SKhk6PQpbmVZoCnmpfB482il/Oe5M2bYll2t9uzmfbZTBwa9upc5IltckL/OGSbKzeelQPVVVv56bmzQptQM27KF0+3sFcts6Rx1o3SR0xK1RW9Ef4+UqX9ZLZY4tMhUt0jpurOy5hXLVS+31y1E4ZrQcHdkhka1hctoR7bSOFG5RnD4FIbKeWiLB0+H9qjQ88DRn5eT93SKQ3nm8OHDYVhCwMgGwZFB8IDJcJgz8U5yWugcpkQUXny5xSpI+RsD3Ps2rRaxw/26WbW/q2Db9/XoUmevbs4WbGhoVHviEktbt7XyfDAJs2c025K5zfLB81afk/nSra0hndR36hbWjx/ebts668RTU7RO+QuqE3OVk2nJjPbZ7Lo+e+N5i+Jia6QryIXbiluU13aAtzsonGqlY9o7oT0lRdA+YLSZQVgZoDl69GiA4bW5jhwvo69HBIU7k7QSmEPA4wJQiTNx5TqtvwUwH2+E7ggODYU8k0jkGUcNN1LGNKo5hstpl4v9lCF1ALrgugTWkTbVafu1Rrpk4JsuBnG0lpXbOaDNr6Fija16odMe2dClpU+d3hJWtnGlSsweeU3xsDVl+uwtFyyys5ZNlds5KJdTu5fyXLLqIBRM8PaQ9vZ6GW32dNpecAnojTYTD+i6NTEKdz2QJ+SnTJkSEjB0AmccAKUPKqHcCVMYdDypwlM4d9CBp3WFOqhTihuVpnNVYYEvZWFpYwj6LSk+H7SNUtzX1/U4wThZukyr1oHRrK3dqPsvckQ19jAueuSGSpkjvAnaxHnkmV3W3tZsK+Y2SukycKqf9tD2rDbY0uBOQqoLT6cK9zJovVNoKw7EZF7KpHspEKaPKzQtI+0hTXvFaRnpAss/BdITYBrV7HkwEjm9wcQGE65yrkHIjdKoHl8xClWdF2mKBXkr4ttal9HobbHTljRr6a+Vp7yeKJ34qgu4SDpW1Wz7+qvsxw9uso175BJKwWPYeroGpSOf6udBPtqcBhTrsgPzNnhZmocupU9xXuvTCDntNa80ZehwZ+Q4HrtwnvfYeTicY69y0GTHm40CeFgIoSyOmPPs93pQw0P9ignBDVTcKof9ustn2fkrW3Vu2K1OGxS9Okv0cGQiHa2aajs7ZfPvf842vTKoG7jiEez+RFuc1EYVIbjsk+W9PcCCbCWkShpgYaXpBMSedsYeMwqOB6/sUXA9ULGqmiBMGaZEwNW7D54/wEOHSCnhxF30hPJ5ZsiFkrDjqF04a0PpF02zC09qk93ul62X0uUmxobrLZPrWKxttX1H6uxHD221jbsKxp2hMJYTeeH6GvkFD+1IdBT58lKofSW4l1XyIE8omxQyKTJ5QlqWpiN0/NMr9BJwHT8V3tMOc/zJYnCDssWLkPIk77zY8ZI3r5OgqPQ3XdBm565osyqZl0xhSPvuzAzhvdGYrzHuIe7uqbZ7Vr9km/Zoww3eLIhgSigpLybjvEXd5foE8AEIjgeHe+zlHgce8iAUx6oYpTDiIXg5aR/BDqPMQwoDntJROV/9GB4etpaWlgkw6MHlqeQLHeXwJu154kAHrWDgVMlf51guwvSllHy1HdYq9c6H99v6l3XVTounor5XNFY60Ain++qkarZ6Gwv29itPtpPnaZElVzSrK9JSp+acyC9tj6eZNAnU52WeJ+YrJ8AaGxuDfJR5CJoFiOAeSB8vHxsWsVO8tBzo8WBel8dep8co2uk9rsQt55XgWC7gSfFZzX/TZF7ecH67nbKwyeoy2kfXRMqkTAheDN/KkE0/cKTK7n14vb164Ig8mtiZKLuyzkBX0ovDvL2eD8x/zUf59iwN5JnMtYMhvUpv8lQG4LhRk9EiFDRsEvnGV0oPX+r1TSRvBDiUu3vm8HFaYHpEz24hdGGzTAhIyFHqdLwX3Rdvaaq1J17qkMp10KHFlqxLUCiXhjK5RuvoOmiHOntt0Sy+BKUNL82h1J22lzbyUEZdqcy020OQQ3nKUpmhJZS1lzbUif9/iI8lF+Xp482RSiQ2OSlsZMjadcz3poum2pla8GRGDmsS1eVSWXLGMlfwiiOD2m/JW9u0ltBcr88V7HEA/g4+ygr3Hvj3VODC/g7kmtD4yfmWRHe7XKo0Kp6M3ipgOsSYpuF+3SXT7TxNpPnhHrmNWgnKt8/pyK4x060Dkvk2d6ZGv6h4vCPhQnDdxNy/7dPbUL6XkrJxYFr2m6QR7N9KW8kfPsdtaOkV5zhOiMGzcB5Bacpwsh+visqma7v32ktma4KttfXP7wxbAlNrB+3C0+bbZTI72j0IfkwlL3j+Lts0YXvWGziZ4ihzeLlhJQWn5eOK4pWPmJSNC43Xy+gEiH8eFzzYxpQPNpLAMdk4bWx8gIUTHMHCmAQz4ke24hWINZFqlGNhwWuTTb/mgmk2rzl+93PJvBbtPjaYviSn3Uj3PKJUgdwbQEYhlcNl9TLPR8yIC6yyPJzag1QJ8AY7DHj6OGPwnJY0lURaFBj3X5j4KIvuVEkxUjrKplz/w8Fz4JkICd/AU0onJh8bGDsn0kYejOawCYWmw4DX9q0m1IJMB+6jOMiM6J6MtHvZme3hxF+/mRC6Pis8uQUijN0HC3gTXKEhow8fGF6eyuXyEYe6xZfg5aTLt2fJeCUwdUaUEyByRsRpcIZUMg5LFBHwY2+TjFeNXRjKddigCY5rx3gc3CXxhgkYeAafW5XSUOoATprv/pAvlEaoth+RVuV0MN9ii99k4+uIGW3SFLlvJ/xgQthQV5Ck6izaxAN97Fx04PWpMIS0jZwKEVIc1x3lqQ7BIchzGT+jpMBdnEqXhoogAj6u1PHKgEPjlbME58sP4OsULzzASUtXZR7uG+e0XxIVzuhlW9NfcZQqkySirHgRcAeDwqWYjCqBH7RR2ZIpKE2N0544nYkMoZO1TYBNR8bYHjqNFWZUMspG5cHYJZ0aKtUHCvSBQDrVETiuVOrjAV7ZaWEvBSb+QBQao9gDZenjuI7nMCqhLGw80VClCzInTzzxhK1a/Vhgl5VisdwE6MK4UuNyUs7RI0dt9eontDKNG/gBrpEbrlyI6c6dO23VY4+HzkLJwPPa1mUl+8iq1dbZo0tFAiA6cGRBfeCp1yDQI5WrUmRggRP3aciDC/ZEUwKtP7HjxKMUvJw41QVgyirjgBdK9cGopTeOF5zJZDjQpyNfZ1mqNWsdhzrs7/7u7+yv//pTtvdAR5kUXkEAKSUoRrgHDuy37373u9anpTHBcWK9Gdu4caN96ctf1ggvmaNwA7RgnV1d9vXbb7e9e3XlTYFOZARHpce3gjJCrDNf6gx1TuiUCEs/vS2x7nEIeYeNl0b9vUYHKUIpHbt1EgBFMK+s8Biory1mGGm8PPPMelu5cqUtWrjYnnpqrUrgCyQGflCMkV0YHoh1CTiSmJMSWogqB0SQTfjhR8b0BvhOYth11dvGwcfRI32BL52aKmpwcDhcZxiVHeatiG8G7X3tKX6qh1+nj8lwnYa47IeTia9g2sSJ6VTgiZCKzkHXagRKXLPmSbvkkkts//6D9tDDD9lVV19lDZyXqT4affc999qqhx6wRfNn25wFi7VUH51gG9MG5ESDYtyWZ/mND0wAZexrl8xBx+HDdtdP77L1a9fpWxh5O/f88+zaa68NJ060ARN31113WXd3ty1cuNDe/va32/Llyyc0Ka03BUAP7Hi6SGHgEjwuK9yZguyjwQk9diE87zTElHl5/K5N1ja/vNX26DX/wCmn2JLFR+wXv/ylbd++005dcUIgfeDBB+3BRx+zD/33/2YzW5rt6//0bdsuO83XRcqBSU3zAYaC8u07tto3vvlN3VvR+Sj73XLn9nd02c5dOp2nk0eH7LYv36oWVtmf/smfyDz12I//5Sf2D7d+2T75F39umzdttFtvvdXe+/4P2JlnnG4P3He/ffGWW+zzn/+c7itOl7ejSVUDxttalkMJyryNHgP3tMPJVz4+mMtuIa8rSBD5q+uMUuK0Ak87HH+bkJNLlhW/Bx54wJYuW24zZ84MR1grVq6whx9+xJYvXawLlwN2z7332JVXv9lOPvlkUY3Zm6+5xp55caPuo3DRBq8ozvaytIJzks+J/rAdlK2vrdVhsX6UJq8bV13dR/S26AtcOrTdtWObvbx5s33q5lts9qwZNjZjuv3+O663T3ziz8Ok+/jjj9sZZ5xhV7/hajRl16jOpqamcNCN3Q/upfoXU+f6oE2uC9KuH28vZQRwUCzwwEv8XDcel0c4iiZ4nKYpgwFEMCNPmuAxZbEXpWxNgL1dHfazn/7U5i9cat/+9rdFN2q7d++xNWt/Ze/6g7frahoTW9HmzJqrmCX4aNg/nrdgfqjjhY0v2Lqnng6wluZGe+MbrwzlJ5y4zD7+8Y9bY4OuumnuzOhL+7t2v2o79u4Nshw82CHF11nrtOn6Ntuw7h8NWGvLVKuvq7F9+/bZ3n0HbOnSZUF2FNY0pcmuve6tYXE0qh8uC60K7YyDL21rINKHl9F2T/sIdpw0dhzKZA7HfUaIeLwsjQOyYPiWKQ75cXcp+qmcEz793HNh1KxceXL4pUo25VeuWGEjQwP2/IbnNUJRmEbsoG4AEWRr+XVOXDX4uQ/LnRYCdWovudxAFBMGgXjQmdh1BgPXy/glOMxClfjlq7gbEgdTQ1297rnU6adAmCiD6Q80j61aZfv37Rddjb59py9kVddOqoNUHyiRk3nkdJ2kenFc1085H1qjD3qLByKYVYa0fCKc0R7dNHDEKeTv+df77eJLr7A//uOb4usq21rfMCXY2R987w67/PJLNdKW2tPr19rFF5wtupy9vOVl2/jCS6HqFSeeZDxpwKd3GSkPI0z1IU9Rv6fCiJ0zb77uhQzaM0+vs8suv1jXKIq24fk1uudStAULFtjK5cvs5/fea9e+9T+EHx/bsmWL3fqlL9nnPve5UBXTxYQ5RKUT2xtNSlo2WZoyniBjKU0FZZMCgOe3C94xKDrOAZy87Nmz2za88KL92Z/+z8CO4zWuNBDecOUV9tM7/0WjfIPdcMO77W9u+YLdoklr7uxZtuqJNbLtOsgIP/yI+eLHZeKpPfdGGMEoNXS+eBGPhR8XU0ayF6XUaa1t9p73vMe+971/tk2aILmUs237DrvxppusWabloosvtCeefMK+8IUv2MKFC23btm321re+1RYtWoR4kedvoIfJdJUqPjBLPhxfX7EJDnNoDK8or8BkhH6blFdjPESF+9c64vI8J1u5356T2bj4oouDrcWcFGUfp+pMc0DXwB7TapLRduKJJ2qxc0AT6cOhoctlcnr7+u20U0+xJp0HFkQzIjexSp2Y05W07Tu2265du+yCCy7Ra69ls75zMqabtEdlq9c9+5ydetJKa5s+PYi3RRPno6tWi29eI/1yeUnzS6PNrL+v1x6XDK/s2WOnyIM666yzggmB0NvOIKGt8a0dbzEp9ETnp7eFHQN6fuwXPWLewHOe4JQVTg/AiEpSBGc0ucIDCzEdPyaLG1NxPcX7QpdwfXdMo2+KJr8QcPXwmVUndcV6x28+IUscERrR4o09zmsizkjpBLEKfOFZ1Kl8VnbXBwINdCXxNgzqnmJjQzxcKA0PcSAVc/Dz0UeaUpb70B5P4dD44HR6Yur2X1f2m1fw9RBuz5JxItIoAcHTUDY2YopA453iyok8yl/bhlh4Qoz8pDD2MWJQr2Pr9Y9lehgFAgRFCT82u7Qy1AEDy2++xu0yBjddvNnrZj5khQkMyrDaLNXLKOX7+ARgMcTBQCe7ghxC7O30geftDPyDbDQpcktjl20yno4H/zy9QaDRzpSGO4MA1AcCUp6T4oRZxgXPH+DjtLHDqKy/X5tRerVZwMQJCVikwzVkpGK3oSVwihN/tIZ64w+b+QgGHnZSw/arOku0+byutqHkJGTkhqBwRmrlt9hAA582p3wT8tBeZEcm4pQ/dDyMcC932cHljQaGVSDv9RGrPM6bLgCEPDAkOCO/3kseXBi5II7rZYFQH3gvNGhEV2H5hYfqan3nJmgr8oYPd8HHstEMcFoeeUrI0EgaHLdWU8XQBPgwCGLDJ7kWLDl9gp3s2vA47fHnLNrr7aRdpOFLSBXuOMTYduQldl0FAmgw7AR/xSAAGUQCeQJfBQw7a8rHklAcYeoc8Bw34Jc7DPMkn7iqoNukteNE4eUtLaiE4A1DkeEX8tXQyCcqN+UdmWC/xxWuyhPeMUkbUE5dna5GVATKgaO01/LWrdzSpJl2tLOgk9GXK9SVSkw7gEHnNhz+wAjlIzYyTgBDCAm4VYNHdZdaBE3NU8qVwMQZ4xJ2delnj6RYFg1T9KO+0HslCM8CpkGrQ+9M2CMDODzwo0PxZvzqMLt9fdrr5peTp02bFm11WF1iAvXIgIef2EPQlE9J+V4/YNpE3tsVSWLdpLnDjgzp2+CKKssnOGnvLC+HnuC8KefxkKYnTJqOCCFM2VW7//77tc+81+pqamyxFirXve1ttnjhQtoXlMcccPfdd9uLL75ohw4dsvb2WXbCCSdoj+ItNn16a6hz//69dvPNn7fPfvazNm/evJIcCBRNCwU0jjzKHtZq9P77H7TnfvUr27Frp5b8TbZs2TJ7y5veIncy0kf8SOdplx9+BM8zMAjg8aQKiCYpb9///vfDbuLb1D4PwFIarwf9wHN8wDnFr4/LCx9H9QrWr11r3/nOd+w/vetddpL2s3u0lfk9CfW/PvnJcKDQ1tYWtjc/85mbw53BG254n7773m6dnZ12550/tU996rP2Z3/2CZXNCoJt3bolTCLUEwX3EYDSGX3xCI/dPlZ++/d3hIXRzJkzbEBvx4PaCLv55pvtxhs/qv31ZYEH5mB4OJoGePoIQ1EE95NTswAMPJ+7AqI+zj333Ak2uRLHO4964FdJn3ai85wsjnajBHFlk33yyTVhj/jyyy6zGfoC1AkaYR/84AfDXwzZvXtXoLjjjjvsgDaLbtIqbvnyEwNs8eLF9pEPf1B7JoP29a9/PeAh4LH+IkhAKH/kdMS2yh566CH7yE032qmnnhpMyYL58+0DH/hDLZRO0Mr0FvnWI/J1++zOu36m7292ljqwaOwEbtAK1pWv7y/Zj3/8E/vKV76ig5BnwshGkSy2HnjgIXv66aftW9/6lraMt9Pl4a12HRw8eNB++MMf2m233WbPaV/IyxGVTTAGI7B169aVB1K5GcdJZDEdPLwe9BJptuEWLV5ga9c+aQ8/8kgYtdhy7Chm4eSTTrKezkNSzhq7Utuc9bLNQ8NDqnhIG0OD2jSq1vbnlbZ+/XrrlskZlpfCl6RoFD78UHDXmHji4XKsm0lw2O7T/vSZZ59jc+bOER6y6ARokO8WF+2qK6+0LZtfCsvx/QcP2Je+cpvtk2KEZCOq/05tGTz5pE6VNAq3bt5kf/WXf6kdylfV2XX2jW98Q8v97wVV7H5lT9h2uPfeX4T2Duqg5L4H7tO56CMBzir18zf/jbYo9miTrTrsdt7107uDfra9vMW++MUv6gfUesJK8vbbb7cf/OAHYY5Ad2wtuz49pn2enmBSEJQAwutff4XteXW/fUYKrtaru0LL7nPOOccu04ifMqXdOnSC093dZTNnzQk0jJxoFkJW264z9W2uPjt0uEPf38ETKLlXqgJc6qKDQ51KEx850i8F7bbzLrw0MAmLKCYLDnhlClr093h4lTs6OmzO7NmhwVn57xgQsZSccfcO7+WbOqTAnH30ozcJr1aj+NIwWM4777zg89PGq666ys477xwdYRTsFw/8MmwXjEj5X/vq1+x0HU68/wPvC3Jt3b7N/v7vb7VzzznL1q5bG0zp+9/3fq1gG6Sn1+unWA8Gr4aBFjUYdZB+um4lf9Q5tg0hyHPXo2lKi0zIh7R5//v2K71STz31lH31q1/VKPmB3falfwg+NYoIZ4HirLEavAnfaWPhweowo8NkFEygUv4FhZfywfZRLpwqLdFZKbK9ypp0TGVjGvVBRvnjNTW1wpNidVJfJb4EvpClmpjBAx3bqwPyqja9tNmqa+vtK7d9TQrmTRrRZtamoJz6+kabPW+uzZjZHnhIMn0vX21RvX3ay1mzZo0NyCT29vWEAwkWZ88++2wY8RdecKF957t32Ac/9CE7++yztOt5ediLgRFvLwET6k8oSD6CJoIi1FAPuHCrHn1YI2m/zWhr10i42v7iLz4ZXp1aNfqX990XtjbbZ7Tbvr17AhkdxjM8HC/H7Dt4SN5FszG5xu3bkqcgbK8vjWGCS8am1qu7I082DVklDslrIXTKXtPJ8PSQ5z4KQdsGqB7lsV3AKm+W3rJprdNkCqeHeejGG28M/H2Ci3IF6rKy+NnsgaEjAZ+vlvMwh31YCubkav7CRfaVf7zNLr74Ih3XbQ7z19dv/z/BlFS2J3Ke+Fn+oUiKXRAIf/D9O+yCiy6yd73rvSUK/Z5re7stO3FpOGWvqa+zK6643O6/75d27TVvUgc0hZ28n//859qdu8IeePBRu+DCi6y5vsleYXmuFSV/7yF0q/h791KXeoDKhVNlV2lO+Ju//aJMwCu2WDt83d3yen5yp1104cX20KOr7YzXnW1Lli61HTu2aURrJMWXh1dMA6TTlp6QkQlpDIpi0r3hfe8J5oZG4Nez+GLSjOYPYkalukpvNYuuRq0h5mlP/fzzz7err9YxXCn0HxkI37R48YUN4ZDkDz/wnwPluqefsVu01ftGuazztMUML9ej03pMW8t+OKOTApBr9Cq+8z++076g+yR9qujiCy8MNGvWPGW/km/86U9/OuR/77prbfOWzXLXPmPXX399GHnd3b123e+93dpl2z9y04cDHsrlNd+5cztDNp5ZyvDyvc10tCJsaOgbrrS//dvP27vf9Qc6l5wZbO4f/Zc/0k+cjtjXbv+n0FmtmsAxK/f8/GfW3PhO2/DsM0G2C7QlnNcPur/5zW+2b+hQesGixVoXLA3exLp1T9nHPnZTeN2ZxOLhtMyJDJj8BPn/o+qQJnvHO94RJln+httsTd5PPbUueD8fk+dEZ31NpvWmj3088N66datk1Hyi7eTfJITtWZTsJiHY8LAdV9C+9Wr7zj/fYQP98SfqWlpa7Z3vfKddqA4AH1t8RDbvhz/+UfBoVGR1mkimT2/Tzyt1h0noEx//aLCFH5PryM9o1MhsaL0Xrkhg/2644YbwtUBGvwdM4d0/u8dWP77KuuTXY2pmaZIc0F9Z6uzptw/9j/+qtcFy7Xevsv8t17OmptrOet2ZVlNXq5P3drtOi67iyLB981vflpe1KiztMYXX//7b7NJLLw2LtH/82u06jfqoLZw/T91cCAcWNboJcP3brpdJGrbvqd2PPrY6DMI62XwG4AXnnRtWwt/9znft4UcfkRXL601qs/fe8F55biuC+JhAXFbWACztPYQ3WZnw8x0onIdeDxOURMhJ6bziuEwoFQU3NTXLTaoNaacJk6YU39PTJXrtoKmiZo3coWH9Ys9zz9jSJYs1yVXpi0bdoeFsgrGlyok8vjlC0cDAV5M2ggXhBB/WcrunO27mt7TyDYWM/WrDi/pdlSk2X5MeATPBGSVvC+eh2G4OjDnIHtQvfx7u7A686+oagjnBlLBY6juibz6og2q4I6O2+zxRK1MZDJ/KenrFWzphL6ZW56Fj2pvnkIW2c6cFt7ahcUr4YcpRpXlNgPOWo8dKhYe2aYIMv5eC8D5qSfN6M0GlLhyVp/mApg8EgBkzMwE+0IZfg1Ca5T9wlAIsKLSE5x0XhBEOgbK0HtJ4ULEOjtri6tLlpdxlcH4MhH7twyAzpgF6D+AgX7TjpQ52YCl2fqmsngYlyhIPrtM2UU57XeEuj9OEL1WlhSgtZVyqPygKGI0nEDsdFXql0PoDHDwqT5UDHBjxuCJjZ1FGcBwUBq3vzDGxuQxO70t4eKYBPH+cn8exXlnvY7TXB5cPIvh6G6H1uuAPTx6Ct5lyaB3P4eVJE2QndKAz8DhVeIpDurJi50fsIaWhzOkQinQl/Hh0wFK6Slrn53JV4pL3MnBIVwbn4TDwCJS78sk7PeXgep1OD46H8kwFA55jBYjT4EIQe0VeluJ5pSmMtAuV4qY4Xp7WW5n2vMdO4zH8aNNkfB3neLSO47HrJ+WX0h+r3OmJg8Ih8qdSwJQhBORTxmnvVuKmeNB6SHmA44/Dnc7LK/lOhudlaQxd5QPc+Tl/r28yWi+DxtvqPI7VAeBOxhO68gh3ITz2ioghTsvTdCUspUvx0rTzTHHTNLjHErgSL81Plk7rdZ4eg5/CU/rKcmh4KPeHDpgsOBxYWhf58o8bHA8JWCUhxGkAJw2Vb4rnU8EdP+VdyQecFD4ZzWQ4Xg+x153ydp4eA/tt4F6n1+N56uJJg+MQl2/PgpAK5oJ4zMzscMpcONL+VFZCHpjTVtLDAzgBnPSVdZ6TCQ8+tNB4TJkH5wstODwEL09pnIfTujxOm8rkOO7BuGxO43U4T6/X6YjLXkolkSMhHMHj46WdB7gpvtNQhpApnDR0ju88oElDiuc4XuZ5xyePonjAIaZeLwcPj8sV43VT7jxJe6DMlUsZtGmeMudB7GnKCeSpmyf89iyFzsAFpSwNLizwygCMFZ77w8ApI1CZ+6OuABcAOHiOQ5wGYCnceVbiHEtm50v9pJ2/x/BzWucNjDQPdMBJO73jIcOxaKHzB7yU5/8FciRG0RC7AmgAAAAASUVORK5CYII=;" vertex="1" parent="1">
          <mxGeometry x="1180" y="320.5" width="92" height="89" as="geometry" />
        </mxCell>
        <mxCell id="TNscLNkaRWgxwCWvulyc-35" value="Machine Learning" style="image;aspect=fixed;html=1;points=[];align=center;fontSize=12;image=img/lib/azure2/ai_machine_learning/Cognitive_Services.svg;" vertex="1" parent="1">
          <mxGeometry x="1192" y="470" width="68" height="48" as="geometry" />
        </mxCell>
      </root>
    </mxGraphModel>
  </diagram>
</mxfile>
